<svg xmlns="http://www.w3.org/2000/svg" viewBox="0 0 105.83333 105.83333"
    width="400"
    height="400"
    version="1.1"
    id="svg131"
    sodipodi:docname="drawing.svg"
    xmlns:inkscape="http://www.inkscape.org/namespaces/inkscape"
    xmlns:sodipodi="http://sodipodi.sourceforge.net/DTD/sodipodi-0.dtd"
    xmlns:svg="http://www.w3.org/2000/svg">
    <style>
		path {
			fill: #FFFF00;
		}
		@media ( prefers-color-scheme: dark ) {
			path {
				fill: #FFFF00;
			}
		}
	</style>
    <defs
        id="defs128" />
    <g
        inkscape:label="Layer 1"
        inkscape:groupmode="layer"
        id="layer1">
        <path
            id="path2995"
            d="m 49.529564,83.028383 c -0.07237,-0.01672 -0.546071,-0.06614 -1.052666,-0.109964 -1.097667,-0.09491 -2.030066,-0.399436 -2.451571,-0.800621 -0.402275,-0.38294 -0.88187,-0.989401 -0.88187,-1.11509 0,-0.0585 -0.0598,-0.222372 -0.132899,-0.364218 -0.4982,-0.966812 -0.77606,-2.252436 -0.904415,-4.18435 l -0.05923,-0.891735 -0.263167,-0.02944 c -0.889678,0.122238 -1.507505,0.15555 -2.259284,0.03004 -0.204795,-0.03118 -0.944767,-0.186449 -1.644351,-0.34508 -2.459026,-0.558672 -5.139201,-0.889774 -7.631825,-0.591432 l -0.482472,0.06024 -0.614055,-0.584757 c -0.33773,-0.321613 -0.949592,-0.879589 -1.359693,-1.240015 l -0.745639,-0.655242 2.149193,0.06425 c 3.861879,0.115382 9.788913,0.06712 11.280189,-0.09189 1.490311,-0.158918 2.450079,-0.370839 3.075889,-0.679216 0.507024,-0.249834 0.753401,-0.490822 0.969417,-0.94812 0.08824,-0.186843 0.227112,-0.435534 0.308615,-0.552649 0.0815,-0.117115 0.388969,-0.785911 0.683259,-1.486225 0.29429,-0.700306 0.848054,-1.889959 1.230566,-2.643609 0.659302,-1.299042 0.710409,-1.37284 0.981962,-1.418018 1.779443,-0.295989 3.683889,-0.283404 4.613132,0.0305 1.502941,0.507682 2.75921,1.803251 3.522044,3.632246 0.379861,0.910752 1.040206,2.989937 1.111439,3.499413 0.107501,0.768846 0.129247,2.727352 0.04008,3.6094 -0.198479,1.963425 -0.799121,4.120064 -1.476802,5.302672 -0.612781,1.069314 -1.758741,2.024662 -2.698594,2.249803 -0.92117,0.220601 -4.671995,0.399596 -5.30719,0.253255 z m 5.333768,-2.293029 c 1.13407,-0.547117 2.168842,-2.309677 2.650963,-4.515308 0.23335,-1.067619 0.324633,-3.25169 0.180121,-4.30954 -0.314477,-2.302026 -1.190302,-3.999634 -2.32806,-4.512508 -0.837772,-0.377688 -1.546629,-0.196166 -2.37832,0.609027 -1.317852,1.275862 -2.143227,3.863668 -2.142352,6.71705 3.31e-4,1.382859 0.166752,2.488445 0.534658,3.55368 0.316608,0.9167 0.588693,1.387029 1.125563,1.945596 0.723508,0.752757 1.506014,0.922731 2.357357,0.512019 z M 9.1048376,80.354451 C 8.2360724,80.245304 7.2316191,79.973819 6.6563376,79.692678 5.9854732,79.364822 5.2298876,78.572495 4.9589139,77.912614 4.0219546,76.27768 3.8739672,74.872739 3.7051022,73.112033 3.7705252,72.433354 3.3734064,69.066448 4.1446691,69.06551 c 0.307448,0 0.4015478,0.04132 0.5481756,0.240685 0.2699385,0.36701 1.135036,0.764827 2.2630555,1.04061 2.1268228,0.520011 5.8776458,0.920015 13.2828838,1.416498 l 0.929943,0.06236 0.925819,0.976657 c 0.522095,0.630565 0.790113,0.631753 0.727216,1.195344 0.03079,0.0482 -0.189716,0.0801 -0.546421,0.07897 -0.760902,0.04094 -2.876057,-0.18103 -3.167997,0.275912 -0.937749,0.716683 -0.646898,-0.0099 -1.110738,0.8117 -0.62859,1.36155 -0.979768,2.834864 -2.109453,3.826808 -0.488296,0.415079 -2.178579,1.171483 -2.956324,1.322993 -0.732356,0.142655 -2.835705,0.164904 -3.8260882,0.04049 z M 86.595936,76.991343 c -0.678253,-0.08426 -1.488031,-0.304297 -1.781726,-0.484117 -0.679706,-0.416214 -1.224425,-1.053263 -1.342675,-1.570307 -0.03875,-0.169316 -0.166933,-0.594475 -0.284921,-0.944806 -0.441908,-1.312126 -0.648519,-2.575327 -0.513989,-3.142302 0.06696,-0.282178 0.105922,-0.308376 0.768812,-0.516862 1.26022,-0.396364 1.630417,-0.641824 2.2234,-1.474336 0.660876,-0.92774 1.240913,-2.132687 1.985151,-4.123545 1.383376,-3.700868 1.939011,-4.452218 3.458968,-4.677442 0.82353,-0.122004 1.459347,-0.07257 1.898655,0.147544 0.600008,0.300665 0.922574,1.165119 1.214956,3.255935 0.447105,3.197243 0.40013,6.529694 -0.120344,8.539409 -0.09737,0.375902 -0.217404,0.959078 -0.266762,1.295985 -0.283177,1.675692 -1.08951,2.679192 -2.497967,3.202509 -1.17206,0.427096 -1.918212,0.550439 -3.250285,0.537287 -0.675456,-0.0068 -1.346528,-0.02687 -1.491273,-0.0448 z m 4.951296,-2.23239 c 2.035852,-1.005535 2.807196,-6.995353 1.348286,-10.471504 -0.484407,-1.154154 -1.262314,-1.930642 -1.934175,-1.930642 -1.100042,0 -2.07217,1.482402 -2.534035,3.864175 -0.123547,0.637163 -0.164685,1.241718 -0.164685,2.420421 0,1.770559 0.146769,2.763698 0.589858,3.991567 0.675878,1.872986 1.650232,2.641483 2.694735,2.125643 z M 29.532953,74.701513 C 27.591224,74.469334 26.128896,74.601478 24.430946,74.39157 l -1.170477,-1.239425 c -0.643784,-0.681698 -1.16223,-1.247408 -1.152142,-1.25717 0.01008,-0.0098 1.359079,0.04344 2.997816,0.118197 l 2.979482,0.135928 0.570194,0.52396 c 0.313607,0.288171 0.955996,0.861245 1.427503,1.273479 0.471506,0.412233 0.841246,0.765039 0.821641,0.784026 -0.08685,0.08408 -1.013455,0.06455 -1.371887,-0.02898 z m 29.960609,-1.713061 c -0.02984,-0.131562 0.04728,-0.771525 0.171407,-1.422188 0.487051,-2.553079 0.487147,-4.360916 0,-6.442985 -0.119354,-0.510482 -0.202884,-0.941839 -0.185611,-0.958571 0.0682,-0.06606 4.005129,-0.388918 4.062676,-0.333205 0.09158,0.08867 -0.118426,2.127595 -0.368144,3.574241 -0.254779,1.476031 -0.263648,1.670509 -0.09091,1.993914 0.192529,0.360449 0.690767,0.516007 1.649962,0.515129 0.88968,-7.56e-4 1.636194,-0.07935 5.546673,-0.583607 1.447414,-0.186638 3.204049,-0.400489 3.903635,-0.475226 1.380219,-0.14743 10.798596,-1.306003 11.11527,-1.367406 0.412195,-0.07975 0.732393,-0.844998 1.607249,-3.841163 0.299704,-1.026513 0.569645,-1.904066 0.599868,-1.950091 0.03024,-0.04609 0.222615,-0.110918 0.42754,-0.144071 l 0.372588,-0.06031 -0.265832,0.573618 c -0.146206,0.315498 -0.575434,1.399085 -0.953804,2.408018 -0.809965,2.159696 -1.140118,2.858474 -1.833302,3.880483 -0.44759,0.659934 -0.580584,0.79173 -1.035824,1.026687 -0.777984,0.401442 -1.846465,0.663248 -4.639099,1.136665 -0.8202,0.139038 -1.688648,0.289692 -1.929885,0.33478 -0.241235,0.0451 -0.793886,0.07862 -1.228112,0.07454 -0.434221,-0.0038 -0.967135,0.03194 -1.184247,0.08015 -0.21711,0.04821 -0.769761,0.113323 -1.22811,0.144729 -0.458346,0.0314 -1.208371,0.130176 -1.66672,0.219488 -0.458348,0.08932 -1.326796,0.183513 -1.929885,0.209333 -0.608899,0.02603 -1.272061,0.103789 -1.491278,0.17478 -0.217111,0.0703 -0.769762,0.158153 -1.228111,0.195204 -2.684032,0.216938 -3.324318,0.285735 -3.640465,0.391158 -0.418113,0.139409 -1.22583,0.268617 -2.787549,0.445909 -0.37524,0.0426 -0.75025,0.134664 -0.833359,0.204595 -0.08311,0.06992 -0.315747,0.151305 -0.516974,0.180834 -0.347687,0.05101 -0.368565,0.04177 -0.420138,-0.185518 z M 33.655884,71.727289 C 29.989802,71.642964 23.946798,71.381854 20.146676,71.143552 11.557714,70.604972 7.2953845,69.971138 5.7295444,69.3059 5.5370122,69.224064 5.4364733,69.171803 5.3829194,69.125528 c -0.924153,-0.39417 7.9847306,0.319599 17.6584646,0.757993 10.719645,0.485821 18.572529,0.805299 20.108544,0.818126 2.387796,0.0199 2.510256,0.0286 2.324987,0.164586 -0.975733,0.715994 -5.091042,1.015812 -11.81968,0.861071 z m 25.190287,-1.914002 c -0.991522,-3.321917 -2.238229,-4.956253 -4.379175,-5.740892 -0.540702,-0.198156 -0.711682,-0.217248 -1.994979,-0.22275 -0.771954,-0.003 -1.670052,0.02369 -1.995678,0.06001 -0.325667,0.03632 -0.592125,0.03353 -0.592125,-0.0061 0,-0.132446 1.018543,-1.412501 1.48891,-1.871108 0.586993,-0.572355 1.216792,-0.977596 1.888392,-1.21505 0.438761,-0.155127 0.723375,-0.187327 1.710583,-0.193532 1.372411,-0.0086 1.746195,0.103804 2.351042,0.707193 0.945818,0.943542 1.805495,3.402088 2.03989,5.833723 0.09508,0.98651 -0.0043,3.015077 -0.168874,3.445745 -0.04358,0.114019 -0.146242,-0.121157 -0.34803,-0.797194 z m -17.032129,0.130177 c -0.4101,-0.01756 -8.81695,-0.393943 -18.683059,-0.836492 C 12.157822,68.61472 4.4066948,68.302317 3.1654269,68.302317 c -2.25296829,0 -2.18059709,0.01778 -2.43148219,-0.597592 -0.089055,-0.218399 -0.099346,-0.409835 -0.039951,-0.743449 0.108372,-0.608725 0.49338409,-0.870675 1.35741199,-0.923413 0.3267303,-0.01998 8.7258953,0.327614 18.6646383,0.772388 9.938742,0.444781 19.156759,0.830929 20.483118,0.858104 4.933228,0.101042 5.48272,0.281996 5.083321,1.674255 -0.153917,0.53656 -0.398898,0.606015 -2.188491,0.620416 -0.844326,0.0068 -1.870675,-0.0023 -2.280775,-0.01952 z m 21.939304,-0.553005 c -0.400835,-0.212065 -0.408162,-0.300007 -0.151882,-1.823554 0.266386,-1.583634 0.402512,-2.728366 0.404874,-3.404721 0.001,-0.245233 0.0192,-0.445871 0.04079,-0.445871 0.09258,0 13.118846,-1.188299 13.535526,-1.234756 l 0.46054,-0.05131 v 0.385369 c 0,0.783481 -0.499725,3.62001 -0.876265,4.973833 -0.09878,0.355166 0.001,0.326099 -1.623824,0.474544 -0.817395,0.07469 -4.496549,0.522114 -7.017771,0.853435 -2.60526,0.342363 -4.442597,0.447529 -4.772259,0.273158 z m 31.44838,-1.194329 c -0.02375,-0.151813 -0.06321,-0.868382 -0.08767,-1.592382 -0.0672,-1.992727 -0.423829,-4.73961 -0.706092,-5.438812 -0.04594,-0.113777 0.358844,-0.162353 3.101679,-0.372201 1.734969,-0.132742 3.218607,-0.217521 3.297027,-0.188401 -0.0894,0.245975 -0.25146,1.041625 -0.40517,1.395096 -0.26287,0.592038 -0.847258,2.256682 -1.001608,2.85295 -0.167148,0.645835 -0.302908,0.986518 -0.383606,0.962816 -0.588452,0.475544 -3.174838,2.593165 -3.717135,2.657027 -0.02977,0 -0.0736,-0.124206 -0.09738,-0.27601 z M 46.725605,67.748783 c -0.35681,-0.356408 -1.052227,-0.623617 -1.784444,-0.685656 -1.001962,-0.0849 -0.907661,0.03988 -0.972838,-1.28682 -0.0316,-0.642574 -0.09525,-1.766647 -0.141444,-2.497957 -0.114451,-1.811916 -0.113722,-4.767201 0.0013,-5.337067 0.147681,-0.731605 0.491525,-1.329024 0.956522,-1.662018 0.919679,-0.658503 5.073848,-1.687926 9.047662,-2.242074 2.396219,-0.334137 6.847326,-0.779002 8.703002,-0.869821 l 0.500962,-0.02453 0.04639,0.424636 c 0.151207,1.38414 0.423188,6.299126 0.43227,7.811504 l 0.01071,1.781683 -2.01761,0.187001 c -1.109685,0.102843 -2.082434,0.18965 -2.161648,0.192896 -0.08665,0.0038 -0.167915,-0.08714 -0.204031,-0.227661 -0.110846,-0.431288 -0.745973,-1.655563 -1.076613,-2.075356 -0.432734,-0.54935 -1.064247,-0.951185 -1.837692,-1.169274 -0.575485,-0.162278 -0.71512,-0.170133 -1.595228,-0.08979 -1.775845,0.162127 -2.602892,0.549221 -3.829597,1.792384 -1.156617,1.172165 -2.333322,3.042683 -3.333968,5.299955 -0.227779,0.513813 -0.421619,0.943202 -0.430742,0.954152 -0.0091,0.01097 -0.150023,-0.113316 -0.313107,-0.276215 z m 30.879945,0.215008 c 0,-0.04366 0.121661,-0.606249 0.270351,-1.250125 0.283911,-1.229314 0.604939,-3.171853 0.607658,-3.676826 0.0038,-0.694593 -0.35845,-0.604986 4.062148,-1.005028 3.928463,-0.355477 4.446109,-0.39193 4.446109,-0.313069 0,0.103176 -1.000998,3.484475 -1.238365,4.183079 -0.2975,0.875601 -0.490572,1.163159 -0.793386,1.181503 -0.230522,0.014 -6.737673,0.854366 -7.113297,0.91866 -0.13268,0.0227 -0.241238,0.0053 -0.241238,-0.03814 z M 41.934222,66.682269 c 0.188716,-0.217136 0.227104,-0.346835 0.227104,-0.767333 0,-0.572392 -0.146189,-0.859375 -0.508684,-0.998489 -0.130328,-0.05002 -0.88073,-0.132545 -1.667509,-0.183399 -1.336359,-0.08638 -1.448994,-0.08205 -1.710406,0.06576 -0.373758,0.21133 -0.496701,0.47496 -0.498245,1.068466 -0.0011,0.427929 0.03133,0.526208 0.239946,0.726649 l 0.241237,0.231786 -0.482472,-0.02883 C 37.509834,66.780987 30.799091,66.483523 22.862431,66.135772 14.925771,65.788021 8.109323,65.480326 7.7145737,65.452023 l -0.7179182,-0.05146 0.16933,-0.268851 c 0.1193461,-0.189498 0.1694261,-0.425135 0.1696542,-0.798305 2.634e-4,-0.46507 -0.030778,-0.563183 -0.2554201,-0.806805 L 6.7964645,63.303459 5.5299324,63.22151 c -1.4137296,-0.09148 -1.6248767,0.01756 -1.8419012,0.423918 -0.186901,0.349907 -0.1619001,1.190425 0.042896,1.442484 l 0.1669969,0.205534 -0.4056804,-0.04548 C 3.0908099,65.202936 3.085792,65.198476 3.012895,64.820333 2.972374,64.610137 2.8742237,64.304401 2.7947829,64.140912 2.7153419,63.977431 2.65948,63.799155 2.6706557,63.744768 2.6818287,63.690358 2.6491447,63.480177 2.5980287,63.277662 2.5469127,63.075155 2.4913413,62.813932 2.4745422,62.697157 2.4577432,62.580383 2.3178006,61.835148 2.1635679,61.04108 1.9243843,59.809722 1.8780407,59.353748 1.8485306,57.941247 c -0.019026,-0.910843 -0.041013,-1.789841 -0.048834,-1.953323 -0.00782,-0.163489 0.031317,-0.411893 0.086994,-0.552028 0.3311246,-0.833422 0.3878367,-0.902603 1.1185448,-1.363671 0.3977849,-0.25101 0.8342459,-0.482089 0.9699433,-0.513504 0.1356803,-0.03142 0.2861672,-0.08544 0.3344149,-0.120035 0.276912,-0.198628 5.0561278,-1.489536 5.1549908,-1.393908 0.01874,0.01814 0.227726,-0.03577 -0.3476079,0.125751 -0.9992432,0.280541 -2.5663991,0.755478 -3.1406273,1.023965 -0.818386,0.382613 -1.4686438,1.004263 -1.6069822,1.536245 -0.1405215,0.540291 -0.1314867,0.642241 0.066032,0.744584 0.187155,0.09696 35.691503,1.235936 36.022215,1.155599 0.118698,-0.02883 0.299747,-0.226193 0.460507,-0.501962 0.424979,-0.729017 1.268286,-1.172672 3.63924,-1.914594 3.067643,-0.959928 7.773233,-2.07536 11.676693,-2.767941 0.912924,-0.161962 1.698474,-0.331833 1.74558,-0.3775 0.05231,-0.05064 0.534019,-0.06439 1.234955,-0.03525 1.038979,0.04319 1.197406,0.03004 1.651896,-0.137182 0.897659,-0.330273 1.191879,-0.855641 1.429344,-2.551974 0.07518,-0.53716 0.31251,-1.951197 0.527384,-3.142298 0.655172,-3.631732 0.792718,-5.309211 0.519088,-6.330457 -0.30215,-1.127662 -1.087929,-1.709751 -2.50859,-1.858033 -0.258449,-0.02698 -1.180477,-0.125123 -2.048924,-0.218093 -4.428477,-0.474097 -12.30654,-0.737701 -21.234021,-0.710525 -6.371609,0.01939 -7.109966,0.131102 -8.52896,1.290296 -0.7852,0.641463 -1.702248,1.859137 -2.841846,3.773222 -0.609256,1.02337 -3.676083,6.567659 -4.105571,7.422195 -0.184261,0.366612 -0.276,0.454809 -0.558246,0.536679 -0.185761,0.05389 -0.357538,0.07881 -0.381723,0.0554 -0.04225,-0.04092 0.432856,-0.802214 0.775797,-1.243079 0.09083,-0.116773 0.374811,-0.613595 0.631073,-1.10405 0.520824,-0.996786 1.221619,-2.213707 1.480224,-2.570314 0.09367,-0.129157 0.320405,-0.517342 0.503876,-0.862689 0.289316,-0.544527 0.620125,-1.101589 2.139805,-3.603284 1.218197,-2.00538 2.227967,-3.114697 3.311774,-3.638272 1.88278,-0.626906 4.490321,-1.157301 6.043529,-1.259043 0.506595,-0.02748 1.157932,-0.08472 1.447415,-0.127195 10.228398,-0.826401 31.398381,-1.861491 43.375082,1.230785 0.1432,0.0717 0.669406,0.260073 1.169338,0.418631 1.199246,0.380337 2.205417,0.883326 2.703419,1.351614 2.366388,3.378311 4.458302,8.203779 7.015926,11.602726 l -0.245048,0.06356 c -0.134767,0.03496 -0.929942,0.06476 -1.767075,0.06623 l -1.52198,0.0026 -1.294427,-3.142297 c -2.563867,-6.223792 -3.20449,-7.415573 -4.402686,-8.190192 -0.855107,-0.552823 -2.146298,-0.854111 -4.197945,-0.979463 -1.193809,-0.07294 -10.907369,0.10446 -11.535457,0.21067 -1.206971,0.204097 -1.668477,0.443812 -1.977523,1.027022 -0.373167,0.704377 -0.849467,3.003784 -1.836462,8.866379 -0.338169,2.008525 -0.660029,3.815347 -0.715249,4.015265 -0.09932,0.359454 -0.09604,0.368836 0.302631,0.865828 l 0.403039,0.502462 -0.369003,0.0454 c -0.202943,0.02497 -0.941345,0.08637 -1.640932,0.136435 -5.959665,0.42652 -11.003862,1.23832 -14.742579,2.372605 -2.164192,0.656544 -2.684824,1.278239 -2.894216,3.455938 -0.09604,0.99899 -0.08235,1.483251 0.183164,6.483153 0.04589,0.864129 0.08379,1.618883 0.08423,1.677305 6.29e-4,0.0783 -0.243043,0.106165 -0.928101,0.106165 H 41.70717 l 0.227104,-0.2613 z m -0.93196,-3.211515 c 0.442795,-0.218709 1.120387,-0.933606 1.35636,-1.431027 0.157601,-0.332244 0.192225,-0.562819 0.194594,-1.295893 0.0027,-0.82642 -0.01728,-0.932925 -0.272404,-1.454206 -0.343607,-0.7021 -0.764902,-1.159255 -1.364781,-1.480958 -0.400285,-0.214675 -0.557097,-0.249236 -1.123194,-0.247556 -0.502323,0.0015 -0.740901,0.04503 -1.008804,0.184065 -0.511587,0.265506 -1.052666,0.845232 -1.332412,1.427538 -0.21541,0.448414 -0.244236,0.606378 -0.240218,1.316363 0.0063,1.122991 0.221033,1.636629 0.999769,2.391975 0.434189,0.421117 0.694496,0.600263 1.016788,0.699814 0.535552,0.165404 1.31434,0.117077 1.774267,-0.110085 z M 6.3564069,62.136554 C 6.8982138,61.875171 7.3354733,61.361805 7.6035521,60.672419 7.7597155,60.270833 7.7849352,60.053539 7.7578645,59.343054 7.729939,58.609988 7.6885742,58.41769 7.4556351,57.937765 6.6140906,56.20381 5.0401183,55.739686 3.8619227,56.878129 2.3551201,58.334121 2.8525922,61.2996 4.7475651,62.157705 c 0.5751675,0.260452 1.0376655,0.254375 1.6088238,-0.02119 z m 93.4766951,2.777282 c 0.0237,-0.07447 0.12672,-0.40291 0.229088,-0.729873 0.22293,-0.712051 0.86574,-2.34781 0.96345,-2.451848 0.0382,-0.04064 0.23967,0.03678 0.44774,0.172108 0.5318,0.374033 0.64909,1.038908 0.43415,1.515692 -0.35089,0.658731 -1.02178,1.45429 -1.72988,1.572419 -0.329958,0.04851 -0.381108,0.03685 -0.344518,-0.07846 z M 63.9723,61.023575 c -0.03213,-1.157801 -0.152197,-3.404547 -0.266849,-4.992683 -0.114663,-1.588136 -0.196568,-2.900257 -0.182023,-2.915886 0.09144,-0.09809 11.110883,-0.944727 12.642513,-0.971394 l 1.116704,-0.01939 0.154521,0.72188 c 0.194884,0.910333 0.195584,0.881201 -0.01638,0.676028 -0.301825,-0.292208 -0.601826,-0.353391 -1.443906,-0.294478 -1.007926,0.07052 -1.072051,0.09057 -1.229073,0.3846 -0.183366,0.343293 -0.163313,0.546414 0.08108,0.821501 0.207367,0.233413 0.232034,0.238533 1.206179,0.250349 1.108634,0.01345 1.325042,-0.05714 1.514788,-0.493886 0.111316,-0.256318 0.111562,-0.255972 0.173276,0.239961 0.223418,1.79544 0.327649,3.237077 0.375187,5.188871 0.05082,2.086911 0.04447,2.229332 -0.09929,2.229332 -0.201525,0 -13.142532,1.173096 -13.609212,1.233734 l -0.358957,0.04662 z m 14.564505,-1.53191 c -0.06857,-2.886754 -0.279183,-4.960754 -0.701916,-6.912121 l -0.122143,-0.56385 0.974155,-0.05518 c 2.11603,-0.119884 4.798315,-0.214102 7.714806,-0.270993 2.58333,-0.05039 3.068527,-0.04108 3.134754,0.06018 0.04305,0.06589 0.07894,0.37594 0.07967,0.688996 l 0.0016,0.5692 -0.232108,-0.20826 c -0.21388,-0.191917 -0.300266,-0.208258 -1.100832,-0.208258 -1.193898,0 -1.468817,0.15596 -1.472942,0.835656 -0.0023,0.406276 0.295429,0.51725 1.396714,0.52035 0.911431,0.0026 1.021704,-0.01406 1.206181,-0.181831 l 0.203034,-0.184655 -0.0023,0.672988 c -0.0016,0.370146 -0.03821,1.238658 -0.08191,1.93005 l -0.07951,1.257087 -0.525936,0.544317 c -0.588304,0.608861 -1.005734,1.284096 -1.416889,2.291924 -0.152434,0.373677 -0.285936,0.68807 -0.296695,0.698641 -0.02086,0.02051 -8.304124,0.787583 -8.504657,0.787583 -0.09554,0 -0.129294,-0.443949 -0.172717,-2.271802 z m 9.287143,1.231441 c 0.302485,-0.957806 1.053107,-2.170389 1.63137,-2.635451 0.27177,-0.218566 0.374119,-0.374578 0.434111,-0.661818 0.04321,-0.206715 0.104561,-1.592049 0.136417,-3.078435 l 0.0579,-2.702634 1.71874,0.05159 c 3.368433,0.10112 8.567114,0.304691 8.933614,0.349821 0.52328,0.06444 0.57184,0.192709 0.47158,1.245623 -0.26837,2.062798 -0.0697,4.553361 -0.49276,6.564265 -0.0212,0.07571 -5.610447,0.557825 -6.384947,0.550757 -0.167967,-0.0015 -0.329254,-0.09633 -0.518029,-0.304472 -0.567027,-0.625229 -1.516354,-0.842916 -2.819556,-0.646494 -0.816568,0.123071 -1.329166,0.381472 -1.913485,0.964512 -0.464021,0.463064 -0.520279,0.493758 -0.905024,0.493758 -0.384887,0 -0.406554,-0.0118 -0.349937,-0.191087 v 6e-5 z M 22.128845,55.517094 C 12.824159,55.221545 5.1861936,54.956385 5.1572453,54.927859 c -0.029473,-0.02854 0.00531,-0.15343 0.07726,-0.277558 0.4386629,-0.756623 2.4886765,-1.44376 8.0472767,-2.697452 4.551463,-1.026514 7.163477,-1.68266 8.440536,-2.120372 0.235744,-0.0808 0.801096,-0.150407 1.403554,-0.172802 0.554842,-0.02064 1.561454,-0.07634 2.236914,-0.123813 2.13542,-0.150067 8.472993,-0.199986 11.974071,-0.09431 7.650072,0.2309 15.053119,0.680307 17.939176,1.089018 l 0.964944,0.136646 -1.271971,0.231844 c -3.748282,0.683205 -9.516977,2.133963 -11.829333,2.974738 -1.588034,0.577495 -2.453851,1.132502 -2.825968,1.811578 l -0.213279,0.38922 -0.526482,-0.01007 c -0.289571,-0.0053 -8.139736,-0.251885 -17.444423,-0.547427 z m 40.967114,-3.350287 c -0.236474,-0.294808 -0.40799,-0.597836 -0.40799,-0.720837 0,-0.19928 0.02805,-0.212248 0.460544,-0.212944 0.253296,-3.21e-4 0.677651,-0.02581 0.943012,-0.05644 0.443155,-0.05115 0.472665,-0.04417 0.362081,0.08567 -0.06622,0.07774 -0.226444,0.141352 -0.356056,0.141352 -0.35543,0 -0.552456,0.178245 -0.517955,0.46861 0.06207,0.522421 0.958367,0.63144 1.020034,0.124077 0.01413,-0.116042 0.152277,-0.356674 0.307027,-0.53474 l 0.281359,-0.323761 4.693134,-0.201632 c 2.581226,-0.1109 4.994549,-0.219155 5.362892,-0.240565 l 0.669718,-0.03893 0.55593,0.487404 0.55593,0.487405 -1.137933,0.05983 c -1.956114,0.102856 -11.224047,0.825433 -12.067934,0.940907 -0.30014,0.04105 -0.335851,0.0181 -0.723707,-0.465443 z M 77.11833,51.11439 c -0.289482,-0.257667 -0.486856,-0.47053 -0.438609,-0.473018 0.04825,-0.0026 2.609206,-0.116722 5.691148,-0.253847 l 5.603427,-0.249321 0.607751,0.526549 0.607744,0.526548 -2.790014,0.05811 c -2.655871,0.05532 -6.400204,0.189975 -8.009466,0.288032 l -0.745639,0.04544 z m 19.51817,0.325128 c -1.423288,-0.06043 -3.519062,-0.135545 -4.657243,-0.166899 l -2.069442,-0.05701 -0.629809,-0.521715 -0.629809,-0.521715 1.295654,-0.05061 c 0.712632,-0.02783 1.673562,-0.101592 2.135334,-0.163902 0.776359,-0.10474 0.93177,-0.0991 2.061465,0.07468 2.104978,0.293942 3.987147,0.837448 5.87106,1.422358 l 0.35089,0.107433 -0.570188,-0.0064 c -0.31361,-0.0035 -1.734711,-0.0558 -3.157998,-0.116238 z M 62.826643,50.660506 c 0.01917,-0.08174 0.313886,-1.79196 0.654933,-3.800482 0.628247,-3.700014 1.128106,-6.360778 1.340131,-7.133868 l 0.116467,-0.424636 0.196637,1.231442 c 0.108145,0.677293 0.423543,2.683692 0.700877,4.458666 l 0.504251,3.227227 -1.105298,0.05082 c -1.166791,0.05365 -1.319692,0.09547 -1.668387,0.45632 -0.181725,0.188071 -0.223202,0.327606 -0.249975,0.840872 -0.01767,0.338458 0.0082,0.756428 0.05729,0.928844 l 0.0894,0.313441 h -0.335607 c -0.274422,0 -0.329247,-0.02709 -0.300747,-0.148622 z M 68.69376,49.94847 c -0.0048,-1.07025 -0.385591,-1.496584 -1.466187,-1.64164 -0.33294,-0.04467 -0.42469,-0.0931 -0.45798,-0.241787 -0.02291,-0.102259 -0.359106,-2.227208 -0.747121,-4.722194 -0.388011,-2.494901 -0.744637,-4.581897 -0.7925,-4.637779 -0.142688,-0.166449 0.221342,-0.522845 0.682549,-0.66824 0.796939,-0.251231 1.573912,-0.318357 4.243472,-0.366622 l 2.687543,-0.04858 0.101414,0.457723 c 0.251447,1.134879 2.374638,11.893177 2.374638,12.032458 0,0.145547 -0.174487,0.162855 -2.609732,0.258925 -1.435309,0.05662 -2.925535,0.125546 -3.31151,0.153174 l -0.701778,0.05023 z m -10.874912,0.09641 c -0.578965,-0.08397 -1.569874,-0.232511 -2.202,-0.330094 -0.632159,-0.09759 -1.717688,-0.214644 -2.412358,-0.260131 -0.694636,-0.04549 -1.6183,-0.120655 -2.052522,-0.167043 -3.398795,-0.363104 -13.486401,-0.770779 -19.035703,-0.769335 -3.011764,6.43e-4 -4.594711,0.04497 -7.930608,0.221354 l -1.088281,0.05754 0.05383,-0.26053 c 0.05331,-0.258052 2.730965,-5.221568 3.699154,-6.857177 1.872692,-3.163446 3.012291,-4.284398 4.615501,-4.540282 0.910643,-0.14531 6.161515,-0.28223 8.676946,-0.226263 1.27855,0.02845 4.298384,0.08922 6.710743,0.135034 6.106953,0.115984 8.892392,0.267189 12.675848,0.688061 2.890007,0.321492 3.032728,0.44371 3.018518,2.584584 -0.0084,1.267281 -0.105784,2.027547 -0.647073,5.053157 -0.188024,1.050973 -0.425751,2.42679 -0.528289,3.057372 -0.102531,0.630583 -0.246456,1.235686 -0.319827,1.344734 -0.315177,0.468202 -1.297243,0.549893 -3.233876,0.269013 z m 18.686568,-0.02135 c -0.02513,-0.105096 -0.482472,-2.388573 -1.016348,-5.074386 -0.533852,-2.685818 -1.078894,-5.42327 -1.211178,-6.083238 l -0.240535,-1.199933 1.80348,-0.05994 c 1.159686,-0.03855 2.194896,-0.02525 2.900006,0.03724 1.144859,0.101471 2.36183,0.307903 2.483061,0.42117 0.05576,0.05213 0.993192,4.678969 2.268057,11.194229 0.05704,0.291688 0.0779,0.555405 0.04626,0.586037 -0.0418,0.04046 -4.827348,0.295138 -6.879081,0.366104 -0.0594,0.0019 -0.128548,-0.08225 -0.153672,-0.187349 z m 7.546734,-0.248258 c -0.05266,-0.150618 -2.241037,-11.330111 -2.241037,-11.449009 0,-0.149862 0.339976,0.06368 0.863292,0.54225 0.260256,0.237992 0.645793,0.717914 0.856763,1.066514 0.543414,0.897848 1.669445,3.403705 3.016324,6.712375 0.63699,1.564781 1.176795,2.889132 1.199602,2.94306 0.04383,0.10373 -0.426196,0.149303 -2.536925,0.245957 -0.887398,0.04064 -1.126789,0.02792 -1.158019,-0.06146 z"
            style="stroke-width:0.0863128" />
    </g>
</svg>
